# xmcd
#
# Track frame offsets:
#	150
#	17801
#	34713
#	51132
#	65615
#	82031
#	99866
#	115410
#	128283
#	144022
#	160642
#	176149
#
# Disc length: 2644 seconds
#
# Revision: 0
# Processed by: cddbd v1.5.1PL0 Copyright (c) Steve Scherf et al.
# Submitted via: audiograbber 1.83.01
#
DISCID=900a520c
DTITLE=Dixie Chicks - Wide Open Spaces - Dixie Chicks - Wide Open Spaces
DYEAR=1998
DGENRE=Country
TTITLE0=I Can Love You Better
TTITLE1=Wide Open Spaces
TTITLE2=Loving Arms
TTITLE3=There's Your Trouble
TTITLE4=You Were Mine
TTITLE5=Never Say Die
TTITLE6=Tonight The Heartache's On Me
TTITLE7=Ler 'er Rip
TTITLE8=Once You've Loved Somebody
TTITLE9=I'll Take Care Of You
TTITLE10=Am I The Only One (Who's Ever Felt This Way)
TTITLE11=Give It Up Or Let Me Go
EXTD=
EXTT0=
EXTT1=
EXTT2=
EXTT3=
EXTT4=
EXTT5=
EXTT6=
EXTT7=
EXTT8=
EXTT9=
EXTT10=
EXTT11=
PLAYORDER=
